<svg width="18" height="18" viewBox="0 0 18 18" fill="none" xmlns="http://www.w3.org/2000/svg">
<path d="M9 16.56C8.775 16.56 8.55 16.5075 8.3625 16.4025C6.96 15.6375 4.4925 14.8275 2.9475 14.625L2.73 14.595C1.7475 14.475 0.9375 13.5525 0.9375 12.555V3.49501C0.9375 2.90251 1.17 2.36251 1.5975 1.97251C2.025 1.58251 2.58 1.39501 3.165 1.44751C4.815 1.57501 7.305 2.40001 8.715 3.28501L8.895 3.39001C8.9475 3.42001 9.06 3.42001 9.105 3.39751L9.225 3.32251C10.635 2.43751 13.125 1.59751 14.7825 1.45501C14.7975 1.45501 14.8575 1.45501 14.8725 1.45501C15.42 1.40251 15.9825 1.59751 16.4025 1.98751C16.83 2.37751 17.0625 2.91751 17.0625 3.51001V12.5625C17.0625 13.5675 16.2525 14.4825 15.2625 14.6025L15.015 14.6325C13.47 14.835 10.995 15.6525 9.6225 16.41C9.4425 16.515 9.225 16.56 9 16.56ZM2.985 2.56501C2.745 2.56501 2.5275 2.64751 2.355 2.80501C2.1675 2.97751 2.0625 3.22501 2.0625 3.49501V12.555C2.0625 12.9975 2.445 13.425 2.8725 13.485L3.0975 13.515C4.785 13.74 7.3725 14.5875 8.8725 15.405C8.94 15.435 9.0375 15.4425 9.075 15.4275C10.575 14.595 13.1775 13.74 14.8725 13.515L15.1275 13.485C15.555 13.4325 15.9375 12.9975 15.9375 12.555V3.50251C15.9375 3.22501 15.8325 2.98501 15.645 2.80501C15.45 2.63251 15.2025 2.55001 14.925 2.56501C14.91 2.56501 14.85 2.56501 14.835 2.56501C13.4025 2.69251 11.0925 3.46501 9.8325 4.25251L9.7125 4.33501C9.3 4.59001 8.715 4.59001 8.3175 4.34251L8.1375 4.23751C6.855 3.45001 4.545 2.68501 3.075 2.56501C3.045 2.56501 3.015 2.56501 2.985 2.56501Z" fill="black" fill-opacity="0.84"/>
<path d="M9 15.9301C8.6925 15.9301 8.4375 15.6751 8.4375 15.3676V4.11755C8.4375 3.81005 8.6925 3.55505 9 3.55505C9.3075 3.55505 9.5625 3.81005 9.5625 4.11755V15.3676C9.5625 15.6826 9.3075 15.9301 9 15.9301Z" fill="black" fill-opacity="0.84"/>
<path d="M5.8125 6.93005H4.125C3.8175 6.93005 3.5625 6.67505 3.5625 6.36755C3.5625 6.06005 3.8175 5.80505 4.125 5.80505H5.8125C6.12 5.80505 6.375 6.06005 6.375 6.36755C6.375 6.67505 6.12 6.93005 5.8125 6.93005Z" fill="black" fill-opacity="0.84"/>
<path d="M6.375 9.18005H4.125C3.8175 9.18005 3.5625 8.92505 3.5625 8.61755C3.5625 8.31005 3.8175 8.05505 4.125 8.05505H6.375C6.6825 8.05505 6.9375 8.31005 6.9375 8.61755C6.9375 8.92505 6.6825 9.18005 6.375 9.18005Z" fill="black" fill-opacity="0.84"/>
</svg>
