<svg width="15" height="15" viewBox="0 0 15 15" fill="none" xmlns="http://www.w3.org/2000/svg">
<path d="M5.0558 7.89365C3.12034 6.44659 1.74105 4.8549 0.987932 3.96008C0.754801 3.68308 0.678407 3.48037 0.63248 3.12329C0.475198 1.90062 0.396564 1.28929 0.755073 0.894645C1.11359 0.5 1.74759 0.5 3.01559 0.5H11.9844C13.2524 0.5 13.8864 0.5 14.2449 0.894645C14.6034 1.28929 14.5248 1.90062 14.3675 3.1233C14.3216 3.48038 14.2452 3.68309 14.012 3.96008C13.2579 4.85604 11.8759 6.45055 9.93646 7.8994C9.761 8.03053 9.64534 8.24411 9.62387 8.4811C9.43176 10.6049 9.25459 11.7682 9.1443 12.3566C8.96634 13.3067 7.61915 13.8783 6.898 14.3883C6.46874 14.6918 5.94779 14.3305 5.89216 13.8605C5.78611 12.9648 5.58636 11.145 5.36832 8.4811C5.34873 8.24193 5.23267 8.02587 5.0558 7.89365Z" stroke="black" stroke-opacity="0.41" stroke-linecap="round" stroke-linejoin="round"/>
</svg>
