<svg width="19" height="19" viewBox="0 0 19 19" fill="none" xmlns="http://www.w3.org/2000/svg">
<path d="M3.09961 17.4371L4.62357 16.14L4.63478 16.1309C4.95249 15.8605 5.11281 15.724 5.29168 15.6268C5.45216 15.5396 5.62328 15.4761 5.7998 15.4375C5.99877 15.3941 6.20603 15.3941 6.62207 15.3941H15.3031C16.421 15.3941 16.9806 15.3941 17.408 15.1624C17.7843 14.9584 18.0905 14.6326 18.2822 14.2322C18.5 13.7775 18.5 13.1828 18.5 11.9935V3.90108C18.5 2.71177 18.5 2.11622 18.2822 1.66152C18.0905 1.26117 17.7837 0.935901 17.4074 0.731908C16.9796 0.5 16.4203 0.5 15.3002 0.5H3.7002C2.58009 0.5 2.01962 0.5 1.5918 0.731908C1.21547 0.935901 0.909734 1.26117 0.717987 1.66152C0.5 2.11667 0.5 2.71293 0.5 3.90457V16.1082C0.5 17.2419 0.5 17.8087 0.718457 18.0998C0.908446 18.353 1.19644 18.5003 1.50098 18.5C1.85115 18.4996 2.26744 18.1453 3.09961 17.4371Z" stroke="black" stroke-opacity="0.84" stroke-linecap="round" stroke-linejoin="round"/>
</svg>
