<svg width="15" height="16" viewBox="0 0 15 16" fill="none" xmlns="http://www.w3.org/2000/svg">
<path d="M7.5 10.4999C4.9125 10.4999 2.8125 8.33325 2.8125 5.66659C2.8125 2.99992 4.9125 0.833252 7.5 0.833252C10.0875 0.833252 12.1875 2.99992 12.1875 5.66659C12.1875 8.33325 10.0875 10.4999 7.5 10.4999ZM7.5 1.83325C5.43125 1.83325 3.75 3.55325 3.75 5.66659C3.75 7.77992 5.43125 9.49992 7.5 9.49992C9.56875 9.49992 11.25 7.77992 11.25 5.66659C11.25 3.55325 9.56875 1.83325 7.5 1.83325Z" fill="black" fill-opacity="0.84"/>
<path d="M9.76226 15.1667C9.58726 15.1667 9.41225 15.1201 9.231 15.0334L7.54975 14.1867C7.531 14.1801 7.46226 14.1801 7.43726 14.1867L5.76852 15.0267C5.39977 15.2134 5.01227 15.2067 4.71227 15.0001C4.39977 14.7867 4.21852 14.3934 4.22477 13.9267L4.231 9.00673C4.231 8.7334 4.431 8.4934 4.69975 8.50673C4.956 8.50673 5.1685 8.7334 5.1685 9.00673L5.16227 13.9267C5.16227 14.0734 5.19976 14.1467 5.21851 14.1534C5.23101 14.1601 5.28726 14.1667 5.37476 14.1201L7.04976 13.2734C7.31851 13.1401 7.68727 13.1401 7.95602 13.2734L9.63727 14.1201C9.72477 14.1667 9.78102 14.1601 9.79352 14.1534C9.81227 14.1401 9.84977 14.0667 9.84977 13.9267V8.88672C9.84977 8.61339 10.0623 8.38672 10.3185 8.38672C10.5748 8.38672 10.7873 8.61339 10.7873 8.88672V13.9267C10.7873 14.4001 10.606 14.7867 10.2935 15.0001C10.131 15.1134 9.94976 15.1667 9.76226 15.1667Z" fill="black" fill-opacity="0.84"/>
</svg>
