<svg width="16" height="16" viewBox="0 0 16 16" fill="none" xmlns="http://www.w3.org/2000/svg">
<path d="M8 11.6667C8 12.0349 8.29848 12.3333 8.66667 12.3333C9.03486 12.3333 9.33333 12.0349 9.33333 11.6667C9.33333 11.2985 9.03486 11 8.66667 11C8.29848 11 8 11.2985 8 11.6667Z" stroke="black" stroke-opacity="0.41" stroke-linecap="round" stroke-linejoin="round"/>
<path d="M8 7.66667C8 8.03486 8.29848 8.33333 8.66667 8.33333C9.03486 8.33333 9.33333 8.03486 9.33333 7.66667C9.33333 7.29848 9.03486 7 8.66667 7C8.29848 7 8 7.29848 8 7.66667Z" stroke="black" stroke-opacity="0.41" stroke-linecap="round" stroke-linejoin="round"/>
<path d="M8 3.66667C8 4.03486 8.29848 4.33333 8.66667 4.33333C9.03486 4.33333 9.33333 4.03486 9.33333 3.66667C9.33333 3.29848 9.03486 3 8.66667 3C8.29848 3 8 3.29848 8 3.66667Z" stroke="black" stroke-opacity="0.41" stroke-linecap="round" stroke-linejoin="round"/>
</svg>
