<svg width="13" height="15" viewBox="0 0 13 15" fill="none" xmlns="http://www.w3.org/2000/svg">
<path d="M0.5 5H12.5M0.5 5V11.6001C0.5 12.4402 0.5 12.86 0.66349 13.1809C0.8073 13.4632 1.0366 13.6929 1.31885 13.8367C1.6394 14 2.05925 14 2.89768 14H10.1023C10.9408 14 11.36 14 11.6805 13.8367C11.9628 13.6929 12.1929 13.4632 12.3367 13.1809C12.5 12.8604 12.5 12.4411 12.5 11.6027V5M0.5 5V4.40015C0.5 3.56007 0.5 3.13972 0.66349 2.81885C0.8073 2.5366 1.0366 2.3073 1.31885 2.16349C1.63972 2 2.06007 2 2.90015 2H3.5M12.5 5V4.39768C12.5 3.55925 12.5 3.1394 12.3367 2.81885C12.1929 2.5366 11.9628 2.3073 11.6805 2.16349C11.3597 2 10.9402 2 10.1001 2H9.5M3.5 2H9.5M3.5 2V0.5M9.5 2V0.5M8.75 8L5.75 11L4.25 9.5" stroke="black" stroke-opacity="0.84" stroke-linecap="round" stroke-linejoin="round"/>
</svg>
