<svg width="15" height="17" viewBox="0 0 15 17" fill="none" xmlns="http://www.w3.org/2000/svg">
<path d="M7.5 11.1562C6.20625 11.1562 5.15625 9.96625 5.15625 8.5C5.15625 7.03375 6.20625 5.84375 7.5 5.84375C8.79375 5.84375 9.84375 7.03375 9.84375 8.5C9.84375 9.96625 8.79375 11.1562 7.5 11.1562ZM7.5 6.90625C6.725 6.90625 6.09375 7.62167 6.09375 8.5C6.09375 9.37833 6.725 10.0938 7.5 10.0938C8.275 10.0938 8.90625 9.37833 8.90625 8.5C8.90625 7.62167 8.275 6.90625 7.5 6.90625Z" fill="black" fill-opacity="0.84"/>
<path d="M9.50625 15.718C9.375 15.718 9.24375 15.6967 9.1125 15.6613C8.725 15.5409 8.4 15.2646 8.19375 14.875L8.11875 14.7334C7.75 14.0109 7.24375 14.0109 6.875 14.7334L6.80625 14.868C6.6 15.2646 6.275 15.548 5.8875 15.6613C5.49375 15.7817 5.0875 15.718 4.74375 15.4842L3.66875 14.783C3.2875 14.535 3.0125 14.1313 2.89375 13.6425C2.78125 13.1538 2.8375 12.6509 3.05625 12.2188C3.2375 11.8575 3.2875 11.5317 3.18125 11.3263C3.075 11.1209 2.80625 11.0005 2.4375 11.0005C1.525 11.0005 0.78125 10.1575 0.78125 9.12337V7.87671C0.78125 6.84254 1.525 5.99962 2.4375 5.99962C2.80625 5.99962 3.075 5.87921 3.18125 5.67379C3.2875 5.46837 3.24375 5.14254 3.05625 4.78129C2.8375 4.34921 2.78125 3.83921 2.89375 3.35754C3.00625 2.86879 3.28125 2.46504 3.66875 2.21712L4.75 1.51587C5.45625 1.04129 6.3875 1.31754 6.8125 2.13212L6.8875 2.27379C7.25625 2.99629 7.7625 2.99629 8.13125 2.27379L8.2 2.13921C8.625 1.31754 9.55625 1.04129 10.2688 1.52296L11.3438 2.22421C11.725 2.47212 12 2.87587 12.1187 3.36462C12.2312 3.85337 12.175 4.35629 11.9562 4.78837C11.775 5.14962 11.725 5.47546 11.8313 5.68087C11.9375 5.88629 12.2063 6.00671 12.575 6.00671C13.4875 6.00671 14.2313 6.84962 14.2313 7.88379V9.13046C14.2313 10.1646 13.4875 11.0075 12.575 11.0075C12.2063 11.0075 11.9375 11.128 11.8313 11.3334C11.725 11.5388 11.7687 11.8646 11.9562 12.2259C12.175 12.658 12.2375 13.168 12.1187 13.6496C12.0062 14.1384 11.7312 14.5421 11.3438 14.79L10.2625 15.4913C10.025 15.64 9.76875 15.718 9.50625 15.718ZM7.5 13.0971C8.05625 13.0971 8.575 13.4938 8.93125 14.195L9 14.3296C9.075 14.4784 9.2 14.5846 9.35 14.6271C9.5 14.6696 9.65 14.6484 9.775 14.5634L10.8563 13.855C11.0188 13.7488 11.1438 13.5717 11.1938 13.3592C11.2437 13.1467 11.2188 12.9271 11.125 12.743C10.7687 12.0488 10.725 11.3334 11 10.788C11.275 10.2425 11.8438 9.93087 12.5562 9.93087C12.9563 9.93087 13.275 9.56962 13.275 9.11629V7.86962C13.275 7.42337 12.9563 7.05504 12.5562 7.05504C11.8438 7.05504 11.275 6.74337 11 6.19796C10.725 5.65254 10.7687 4.93712 11.125 4.24296C11.2188 4.05879 11.2437 3.83921 11.1938 3.62671C11.1438 3.41421 11.025 3.24421 10.8625 3.13087L9.78125 2.42962C9.5125 2.24546 9.15625 2.35171 8.99375 2.66337L8.925 2.79796C8.56875 3.49921 8.05 3.89587 7.49375 3.89587C6.9375 3.89587 6.41875 3.49921 6.0625 2.79796L5.99375 2.65629C5.8375 2.35879 5.4875 2.25254 5.21875 2.42962L4.1375 3.13796C3.975 3.24421 3.85 3.42129 3.8 3.63379C3.75 3.84629 3.775 4.06587 3.86875 4.25004C4.225 4.94421 4.26875 5.65962 3.99375 6.20504C3.71875 6.75046 3.15 7.06212 2.4375 7.06212C2.0375 7.06212 1.71875 7.42337 1.71875 7.87671V9.12337C1.71875 9.56962 2.0375 9.93796 2.4375 9.93796C3.15 9.93796 3.71875 10.2496 3.99375 10.795C4.26875 11.3405 4.225 12.0559 3.86875 12.75C3.775 12.9342 3.75 13.1538 3.8 13.3663C3.85 13.5788 3.96875 13.7488 4.13125 13.8621L5.2125 14.5634C5.34375 14.6555 5.5 14.6767 5.64375 14.6342C5.79375 14.5917 5.91875 14.4784 6 14.3296L6.06875 14.195C6.425 13.5009 6.94375 13.0971 7.5 13.0971Z" fill="black" fill-opacity="0.84"/>
</svg>
