<svg width="15" height="16" viewBox="0 0 15 16" fill="none" xmlns="http://www.w3.org/2000/svg">
<path d="M0.5 3.14706H13.8333M5.5 11.9706V6.67647M8.83333 11.9706V6.67647M10.5 15.5H3.83333C2.91286 15.5 2.16667 14.7099 2.16667 13.7353V4.02941C2.16667 3.5421 2.53976 3.14706 3 3.14706H11.3333C11.7936 3.14706 12.1667 3.5421 12.1667 4.02941V13.7353C12.1667 14.7099 11.4205 15.5 10.5 15.5ZM5.5 3.14706H8.83333C9.29357 3.14706 9.66667 2.75202 9.66667 2.26471V1.38235C9.66667 0.895043 9.29357 0.5 8.83333 0.5H5.5C5.03976 0.5 4.66667 0.895043 4.66667 1.38235V2.26471C4.66667 2.75202 5.03976 3.14706 5.5 3.14706Z" stroke="black" stroke-opacity="0.41" stroke-linecap="round" stroke-linejoin="round"/>
</svg>
