<svg width="18" height="18" viewBox="0 0 18 18" fill="none" xmlns="http://www.w3.org/2000/svg">
<path d="M9 9.5625C6.6225 9.5625 4.6875 7.6275 4.6875 5.25C4.6875 2.8725 6.6225 0.9375 9 0.9375C11.3775 0.9375 13.3125 2.8725 13.3125 5.25C13.3125 7.6275 11.3775 9.5625 9 9.5625ZM9 2.0625C7.245 2.0625 5.8125 3.495 5.8125 5.25C5.8125 7.005 7.245 8.4375 9 8.4375C10.755 8.4375 12.1875 7.005 12.1875 5.25C12.1875 3.495 10.755 2.0625 9 2.0625Z" fill="black" fill-opacity="0.84"/>
<path d="M2.55762 17.0625C2.25012 17.0625 1.99512 16.8075 1.99512 16.5C1.99512 13.2975 5.13761 10.6875 9.00011 10.6875C9.75761 10.6875 10.5001 10.785 11.2201 10.9875C11.5201 11.07 11.6926 11.3775 11.6101 11.6775C11.5276 11.9775 11.2201 12.15 10.9201 12.0675C10.3051 11.895 9.66011 11.8125 9.00011 11.8125C5.76011 11.8125 3.12012 13.9125 3.12012 16.5C3.12012 16.8075 2.86512 17.0625 2.55762 17.0625Z" fill="black" fill-opacity="0.84"/>
<path d="M13.5 17.0625C12.615 17.0625 11.775 16.7325 11.1225 16.14C10.86 15.915 10.6275 15.6375 10.4475 15.33C10.1175 14.79 9.9375 14.1525 9.9375 13.5C9.9375 12.5625 10.2975 11.685 10.9425 11.0175C11.6175 10.32 12.525 9.9375 13.5 9.9375C14.52 9.9375 15.4875 10.3725 16.1475 11.1225C16.7325 11.775 17.0625 12.615 17.0625 13.5C17.0625 13.785 17.025 14.07 16.95 14.34C16.875 14.6775 16.7325 15.03 16.5375 15.3375C15.915 16.4025 14.745 17.0625 13.5 17.0625ZM13.5 11.0625C12.8325 11.0625 12.2175 11.325 11.7525 11.7975C11.31 12.255 11.0625 12.855 11.0625 13.5C11.0625 13.9425 11.1825 14.3775 11.415 14.7525C11.535 14.9625 11.6925 15.15 11.8725 15.3075C12.3225 15.72 12.9 15.945 13.5 15.945C14.3475 15.945 15.15 15.495 15.585 14.7675C15.7125 14.5575 15.81 14.3175 15.8625 14.085C15.915 13.89 15.9375 13.7025 15.9375 13.5075C15.9375 12.9075 15.7125 12.33 15.3075 11.88C14.8575 11.355 14.1975 11.0625 13.5 11.0625Z" fill="black" fill-opacity="0.84"/>
<path d="M14.6248 14.0474H12.3823C12.0748 14.0474 11.8198 13.7924 11.8198 13.4849C11.8198 13.1774 12.0748 12.9224 12.3823 12.9224H14.6248C14.9323 12.9224 15.1873 13.1774 15.1873 13.4849C15.1873 13.7924 14.9323 14.0474 14.6248 14.0474Z" fill="black" fill-opacity="0.84"/>
<path d="M13.5 15.1951C13.1925 15.1951 12.9375 14.9401 12.9375 14.6326V12.3901C12.9375 12.0826 13.1925 11.8276 13.5 11.8276C13.8075 11.8276 14.0625 12.0826 14.0625 12.3901V14.6326C14.0625 14.9476 13.8075 15.1951 13.5 15.1951Z" fill="black" fill-opacity="0.84"/>
</svg>
