<svg width="16" height="16" viewBox="0 0 16 16" fill="none" xmlns="http://www.w3.org/2000/svg">
<path d="M7.99996 8.4987C5.88663 8.4987 4.16663 6.7787 4.16663 4.66536C4.16663 2.55203 5.88663 0.832031 7.99996 0.832031C10.1133 0.832031 11.8333 2.55203 11.8333 4.66536C11.8333 6.7787 10.1133 8.4987 7.99996 8.4987ZM7.99996 1.83203C6.43996 1.83203 5.16663 3.10536 5.16663 4.66536C5.16663 6.22536 6.43996 7.4987 7.99996 7.4987C9.55996 7.4987 10.8333 6.22536 10.8333 4.66536C10.8333 3.10536 9.55996 1.83203 7.99996 1.83203Z" fill="#155DFC"/>
<path d="M2.27344 15.1667C2.0001 15.1667 1.77344 14.94 1.77344 14.6667C1.77344 11.82 4.56677 9.5 8.0001 9.5C8.67343 9.5 9.33343 9.58668 9.97343 9.76668C10.2401 9.84002 10.3934 10.1133 10.3201 10.38C10.2468 10.6467 9.97343 10.8 9.70677 10.7267C9.1601 10.5734 8.58677 10.5 8.0001 10.5C5.1201 10.5 2.77344 12.3667 2.77344 14.6667C2.77344 14.94 2.54677 15.1667 2.27344 15.1667Z" fill="#155DFC"/>
<path d="M12 15.1654C11.2134 15.1654 10.4667 14.872 9.8867 14.3454C9.65337 14.1454 9.4467 13.8987 9.2867 13.6254C8.99337 13.1454 8.83337 12.5787 8.83337 11.9987C8.83337 11.1654 9.15337 10.3854 9.7267 9.79203C10.3267 9.17203 11.1334 8.83203 12 8.83203C12.9067 8.83203 13.7667 9.21871 14.3534 9.88538C14.8734 10.4654 15.1667 11.212 15.1667 11.9987C15.1667 12.252 15.1334 12.5054 15.0667 12.7454C15 13.0454 14.8734 13.3587 14.7 13.632C14.1467 14.5787 13.1067 15.1654 12 15.1654ZM12 9.83203C11.4067 9.83203 10.86 10.0654 10.4467 10.4854C10.0534 10.892 9.83337 11.4254 9.83337 11.9987C9.83337 12.392 9.94004 12.7787 10.1467 13.112C10.2534 13.2987 10.3934 13.4653 10.5534 13.6053C10.9534 13.972 11.4667 14.172 12 14.172C12.7534 14.172 13.4667 13.772 13.8534 13.1254C13.9667 12.9387 14.0534 12.7254 14.1 12.5187C14.1467 12.3454 14.1667 12.1787 14.1667 12.0054C14.1667 11.472 13.9667 10.9587 13.6067 10.5587C13.2067 10.092 12.62 9.83203 12 9.83203Z" fill="#155DFC"/>
<path d="M12.9998 12.4883H11.0065C10.7331 12.4883 10.5065 12.2616 10.5065 11.9883C10.5065 11.7149 10.7331 11.4883 11.0065 11.4883H12.9998C13.2731 11.4883 13.4998 11.7149 13.4998 11.9883C13.4998 12.2616 13.2731 12.4883 12.9998 12.4883Z" fill="#155DFC"/>
<path d="M12 13.505C11.7267 13.505 11.5 13.2784 11.5 13.005V11.0117C11.5 10.7384 11.7267 10.5117 12 10.5117C12.2733 10.5117 12.5 10.7384 12.5 11.0117V13.005C12.5 13.285 12.2733 13.505 12 13.505Z" fill="#155DFC"/>
</svg>
